<svg width="22" height="17" viewBox="0 0 22 17" fill="none" xmlns="http://www.w3.org/2000/svg">
<g clip-path="url(#clip0_68_149)">
<path d="M21.2281 8.15649C21.2281 3.66918 16.6216 0.0314941 10.9391 0.0314941C5.25659 0.0314941 0.650024 3.66918 0.650024 8.15649C0.650024 12.2119 4.41257 15.5733 9.33142 16.1828V10.5051H6.71896V8.15649H9.33142V6.36646C9.33142 4.33013 10.8675 3.20532 13.2178 3.20532C14.3431 3.20532 15.5209 3.36401 15.5209 3.36401V5.36353H14.2235C12.9455 5.36353 12.5468 5.98988 12.5468 6.63306V8.15649H15.4004L14.9442 10.5051H12.5468V16.1828C17.4656 15.5733 21.2281 12.2119 21.2281 8.15649Z" fill="white"/>
</g>
<defs>
<clipPath id="clip0_68_149">
<rect width="20.5781" height="16.25" fill="white" transform="translate(0.650024 0.0314941)"/>
</clipPath>
</defs>
</svg>
