<svg width="21" height="17" viewBox="0 0 21 17" fill="none" xmlns="http://www.w3.org/2000/svg">
<g clip-path="url(#clip0_68_142)">
<path d="M10.4828 1.49463C13.2319 1.49463 13.5575 1.50415 14.6386 1.54224C15.6434 1.57715 16.186 1.71045 16.5477 1.82153C17.026 1.96753 17.3716 2.14526 17.7293 2.42773C18.0911 2.71338 18.3121 2.98315 18.497 3.36084C18.6377 3.64648 18.8065 4.07813 18.8507 4.86841C18.8989 5.72534 18.911 5.98242 18.911 8.15015C18.911 10.321 18.8989 10.5781 18.8507 11.4319C18.8065 12.2253 18.6377 12.6538 18.497 12.9395C18.3121 13.3171 18.087 13.5901 17.7293 13.8726C17.3676 14.1582 17.026 14.3328 16.5477 14.4788C16.186 14.5898 15.6394 14.7231 14.6386 14.7581C13.5534 14.7961 13.2279 14.8057 10.4828 14.8057C7.73368 14.8057 7.40813 14.7961 6.32697 14.7581C5.32218 14.7231 4.77959 14.5898 4.41787 14.4788C3.93959 14.3328 3.59394 14.155 3.23623 13.8726C2.87451 13.5869 2.65345 13.3171 2.46857 12.9395C2.3279 12.6538 2.1591 12.2222 2.11489 11.4319C2.06666 10.575 2.0546 10.3179 2.0546 8.15015C2.0546 5.97925 2.06666 5.72217 2.11489 4.86841C2.1591 4.07495 2.3279 3.64648 2.46857 3.36084C2.65345 2.98315 2.87853 2.71021 3.23623 2.42773C3.59796 2.14209 3.93959 1.96753 4.41787 1.82153C4.77959 1.71045 5.3262 1.57715 6.32697 1.54224C7.40813 1.50415 7.73368 1.49463 10.4828 1.49463ZM10.4828 0.0314941C7.68947 0.0314941 7.3398 0.0410156 6.24257 0.0791016C5.14936 0.117188 4.39777 0.256836 3.74667 0.456787C3.06743 0.66626 2.49269 0.942383 1.92197 1.39624C1.34723 1.84692 0.997559 2.30078 0.732294 2.83398C0.479086 3.35132 0.302243 3.94165 0.254013 4.80493C0.205783 5.67456 0.193726 5.95068 0.193726 8.15649C0.193726 10.3623 0.205783 10.6384 0.254013 11.5049C0.302243 12.3682 0.479086 12.9617 0.732294 13.4758C0.997559 14.0122 1.34723 14.4661 1.92197 14.9167C2.49269 15.3674 3.06743 15.6467 3.74265 15.853C4.39777 16.053 5.14534 16.1926 6.23855 16.2307C7.33578 16.2688 7.68545 16.2783 10.4788 16.2783C13.2721 16.2783 13.6218 16.2688 14.719 16.2307C15.8122 16.1926 16.5638 16.053 17.2149 15.853C17.8901 15.6467 18.4649 15.3674 19.0356 14.9167C19.6063 14.4661 19.96 14.0122 20.2212 13.479C20.4744 12.9617 20.6513 12.3713 20.6995 11.5081C20.7477 10.6416 20.7598 10.3655 20.7598 8.15967C20.7598 5.95386 20.7477 5.67773 20.6995 4.81128C20.6513 3.948 20.4744 3.35449 20.2212 2.84033C19.968 2.30078 19.6184 1.84692 19.0436 1.39624C18.4729 0.945557 17.8981 0.66626 17.2229 0.459961C16.5678 0.26001 15.8202 0.120361 14.727 0.0822754C13.6258 0.0410156 13.2761 0.0314941 10.4828 0.0314941Z" fill="white"/>
<path d="M10.4828 3.98291C7.56486 3.98291 5.19757 5.85229 5.19757 8.15649C5.19757 10.4607 7.56486 12.3301 10.4828 12.3301C13.4007 12.3301 15.768 10.4607 15.768 8.15649C15.768 5.85229 13.4007 3.98291 10.4828 3.98291ZM10.4828 10.8638C8.58975 10.8638 7.05442 9.65137 7.05442 8.15649C7.05442 6.66162 8.58975 5.44922 10.4828 5.44922C12.3758 5.44922 13.9111 6.66162 13.9111 8.15649C13.9111 9.65137 12.3758 10.8638 10.4828 10.8638Z" fill="white"/>
<path d="M17.2109 3.81787C17.2109 4.35742 16.6562 4.79224 15.977 4.79224C15.2937 4.79224 14.7431 4.35425 14.7431 3.81787C14.7431 3.27832 15.2977 2.84351 15.977 2.84351C16.6562 2.84351 17.2109 3.28149 17.2109 3.81787Z" fill="white"/>
</g>
<defs>
<clipPath id="clip0_68_142">
<rect width="20.5781" height="16.25" fill="white" transform="translate(0.193726 0.0314941)"/>
</clipPath>
</defs>
</svg>
