<svg width="22" height="17" viewBox="0 0 22 17" fill="none" xmlns="http://www.w3.org/2000/svg">
<g clip-path="url(#clip0_68_147)">
<path d="M7.39554 14.7581C15.159 14.7581 19.4064 9.67771 19.4064 5.27339C19.4064 5.13056 19.4024 4.98457 19.3944 4.84175C20.2206 4.36989 20.9337 3.78542 21.5 3.11582C20.7305 3.38618 19.9135 3.56275 19.0768 3.6395C19.9577 3.22253 20.6173 2.5675 20.9333 1.79582C20.1046 2.18365 19.1983 2.45723 18.2533 2.60483C17.6166 2.07058 16.7747 1.71684 15.8579 1.59831C14.9411 1.47977 14.0003 1.60305 13.1811 1.94907C12.3618 2.29509 11.7098 2.84458 11.3257 3.5126C10.9416 4.18061 10.8469 4.92994 11.0562 5.64472C9.37819 5.57823 7.73661 5.23401 6.23787 4.63438C4.73914 4.03475 3.41671 3.1931 2.35631 2.16399C1.81737 2.89776 1.65245 3.76605 1.89508 4.5924C2.1377 5.41874 2.76967 6.14113 3.66254 6.61274C2.99223 6.59594 2.3366 6.45342 1.74982 6.19697V6.23823C1.74922 7.00827 2.08634 7.75471 2.70386 8.35067C3.32139 8.94663 4.18121 9.35532 5.13718 9.50727C4.51623 9.64143 3.86453 9.66098 3.23249 9.5644C3.50225 10.2266 4.02709 10.8059 4.73378 11.2212C5.44046 11.6366 6.29373 11.8673 7.17449 11.8813C5.67922 12.8088 3.83211 13.3119 1.93069 13.3095C1.59348 13.3091 1.25661 13.2928 0.921875 13.2606C2.85352 14.2392 5.10055 14.759 7.39554 14.7581Z" fill="white"/>
</g>
<defs>
<clipPath id="clip0_68_147">
<rect width="20.5781" height="16.25" fill="white" transform="translate(0.921875 0.0314941)"/>
</clipPath>
</defs>
</svg>
